<svg width="34" height="35" viewBox="0 0 34 35" fill="none" xmlns="http://www.w3.org/2000/svg">
<g filter="url(#filter0_d_2_10021)">
<g opacity="0.4">
<path fill-rule="evenodd" clip-rule="evenodd" d="M21.4411 3.91447L21.4421 4.70634C24.346 4.93439 26.2642 6.91723 26.2674 9.958L26.2788 18.8586C26.283 22.1739 24.2045 24.2137 20.8728 24.219L12.7347 24.2296C9.42386 24.2338 7.31933 22.1454 7.31517 18.8206L7.30372 10.0245C7.29955 6.96369 9.15012 4.98613 12.054 4.71901L12.053 3.92714C12.0519 3.46258 12.3954 3.1131 12.8533 3.1131C13.3113 3.11204 13.6548 3.46047 13.6558 3.92503L13.6568 4.6641L19.8393 4.65566L19.8382 3.91658C19.8372 3.45202 20.1807 3.1036 20.6386 3.10254C21.0862 3.10149 21.4401 3.44991 21.4411 3.91447ZM8.90732 10.3513L24.6652 10.3302V9.96067C24.6205 7.69065 23.4839 6.49968 21.4439 6.32231L21.445 7.13529C21.445 7.58929 21.0921 7.94933 20.6446 7.94933C20.1866 7.95039 19.8421 7.59141 19.8421 7.1374L19.8411 6.28219L13.6586 6.29063L13.6597 7.14479C13.6597 7.59985 13.3173 7.95883 12.8593 7.95883C12.4013 7.95989 12.0568 7.60196 12.0568 7.1469L12.0558 6.33392C10.0262 6.53769 8.90316 7.73289 8.90628 10.023L8.90732 10.3513ZM20.2067 15.1495V15.1611C20.2171 15.6468 20.6126 16.0153 21.0925 16.0047C21.5608 15.9931 21.9345 15.5908 21.9241 15.1051C21.9022 14.6406 21.5265 14.2615 21.0591 14.2626C20.5804 14.2732 20.2057 14.6638 20.2067 15.1495ZM21.0657 19.8899C20.5869 19.8793 20.2008 19.4792 20.1997 18.9935C20.1893 18.5078 20.5734 18.1055 21.0521 18.0939H21.0626C21.5517 18.0939 21.9483 18.4941 21.9483 18.9903C21.9493 19.4866 21.5538 19.8888 21.0657 19.8899ZM15.918 15.1675C15.9388 15.6532 16.3353 16.0323 16.8141 16.0111C17.2825 15.989 17.6561 15.5878 17.6353 15.1021C17.6239 14.627 17.2388 14.2574 16.7704 14.2585C16.2916 14.2796 15.9169 14.6819 15.918 15.1675ZM16.8182 19.8425C16.3394 19.8636 15.9439 19.4846 15.9221 18.9989C15.9221 18.5132 16.2957 18.112 16.7745 18.0898C17.2429 18.0888 17.629 18.4583 17.6394 18.9324C17.6613 19.4191 17.2866 19.8203 16.8182 19.8425ZM11.6302 15.2047C11.6511 15.6904 12.0476 16.0704 12.5264 16.0483C12.9948 16.0272 13.3684 15.6249 13.3465 15.1392C13.3361 14.6641 12.951 14.2946 12.4816 14.2956C12.0029 14.3167 11.6292 14.719 11.6302 15.2047ZM12.5308 19.8484C12.052 19.8706 11.6565 19.4905 11.6347 19.0048C11.6336 18.5191 12.0083 18.1168 12.4871 18.0957C12.9555 18.0947 13.3416 18.4642 13.352 18.9393C13.3739 19.425 13.0002 19.8273 12.5308 19.8484Z" fill="#06152B"/>
</g>
</g>
<defs>
<filter id="filter0_d_2_10021" x="0.141602" y="0.989258" width="33.2998" height="33.3525" filterUnits="userSpaceOnUse" color-interpolation-filters="sRGB">
<feFlood flood-opacity="0" result="BackgroundImageFix"/>
<feColorMatrix in="SourceAlpha" type="matrix" values="0 0 0 0 0 0 0 0 0 0 0 0 0 0 0 0 0 0 127 0" result="hardAlpha"/>
<feOffset dy="4"/>
<feGaussianBlur stdDeviation="2"/>
<feComposite in2="hardAlpha" operator="out"/>
<feColorMatrix type="matrix" values="0 0 0 0 0 0 0 0 0 0 0 0 0 0 0 0 0 0 0.25 0"/>
<feBlend mode="normal" in2="BackgroundImageFix" result="effect1_dropShadow_2_10021"/>
<feBlend mode="normal" in="SourceGraphic" in2="effect1_dropShadow_2_10021" result="shape"/>
</filter>
</defs>
</svg>
