<svg width="26" height="27" viewBox="0 0 26 27" fill="none" xmlns="http://www.w3.org/2000/svg">
<path fill-rule="evenodd" clip-rule="evenodd" d="M4.9276 2.93164H8.4907C9.97709 2.93164 11.1683 4.14644 11.1683 5.63696V9.23806C11.1683 10.7381 9.97709 11.9423 8.4907 11.9423H4.9276C3.45176 11.9423 2.25 10.7381 2.25 9.23806V5.63696C2.25 4.14644 3.45176 2.93164 4.9276 2.93164ZM4.9276 15.0467H8.4907C9.97709 15.0467 11.1683 16.252 11.1683 17.752V21.3531C11.1683 22.8425 9.97709 24.0574 8.4907 24.0574H4.9276C3.45176 24.0574 2.25 22.8425 2.25 21.3531V17.752C2.25 16.252 3.45176 15.0467 4.9276 15.0467ZM20.6559 2.93164H17.0928C15.6064 2.93164 14.4152 4.14644 14.4152 5.63696V9.23806C14.4152 10.7381 15.6064 11.9423 17.0928 11.9423H20.6559C22.1317 11.9423 23.3335 10.7381 23.3335 9.23806V5.63696C23.3335 4.14644 22.1317 2.93164 20.6559 2.93164ZM17.0928 15.0467H20.6559C22.1317 15.0467 23.3335 16.252 23.3335 17.752V21.3531C23.3335 22.8425 22.1317 24.0573 20.6559 24.0573H17.0928C15.6064 24.0573 14.4152 22.8425 14.4152 21.3531V17.752C14.4152 16.252 15.6064 15.0467 17.0928 15.0467Z" fill="#3A36DB"/>
</svg>
