<svg width="26" height="26" viewBox="0 0 26 26" fill="none" xmlns="http://www.w3.org/2000/svg">
<g opacity="0.4">
<path fill-rule="evenodd" clip-rule="evenodd" d="M19.8619 9.36778C19.8619 10.6945 20.2119 11.4765 20.9819 12.3776C21.5655 13.0415 21.752 13.8937 21.752 14.8182C21.752 15.7417 21.4492 16.6184 20.8426 17.3301C20.0484 18.1834 18.9284 18.7281 17.7854 18.8228C16.129 18.9643 14.4715 19.0835 12.792 19.0835C11.1115 19.0835 9.45512 19.0122 7.7987 18.8228C6.65461 18.7281 5.53462 18.1834 4.74151 17.3301C4.13489 16.6184 3.83105 15.7417 3.83105 14.8182C3.83105 13.8937 4.01859 13.0415 4.60112 12.3776C5.39527 11.4765 5.72216 10.6945 5.72216 9.36778V8.91775C5.72216 7.14101 6.16429 5.97921 7.07474 4.84188C8.42837 3.18324 10.5982 2.18848 12.7449 2.18848H12.8392C15.032 2.18848 17.272 3.23111 18.6026 4.96104C19.4659 6.07496 19.8619 7.18782 19.8619 8.91775V9.36778ZM9.70622 21.2669C9.70622 20.7349 10.1934 20.4913 10.6439 20.387C11.1709 20.2753 14.3821 20.2753 14.9091 20.387C15.3596 20.4913 15.8468 20.7349 15.8468 21.2669C15.8206 21.7733 15.5241 22.2223 15.1145 22.5074C14.5833 22.9223 13.9599 23.1851 13.3082 23.2798C12.9478 23.3266 12.5937 23.3277 12.2458 23.2798C11.5931 23.1851 10.9697 22.9223 10.4396 22.5063C10.0289 22.2223 9.73241 21.7733 9.70622 21.2669Z" fill="#06152B"/>
</g>
</svg>
