<svg width="18" height="13" viewBox="0 0 18 13" fill="none" xmlns="http://www.w3.org/2000/svg">
<path fill-rule="evenodd" clip-rule="evenodd" d="M12.4019 3.43916C12.4019 5.34829 10.8693 6.8791 8.9579 6.8791C7.04654 6.8791 5.51394 5.34829 5.51394 3.43916C5.51394 1.52931 7.04654 -4.43892e-05 8.9579 -4.43892e-05C10.8693 -4.43892e-05 12.4019 1.52931 12.4019 3.43916ZM8.95831 12.9998C6.15098 12.9998 3.75391 12.5578 3.75391 10.7899C3.75391 9.02127 6.1356 8.5632 8.95831 8.5632C11.7656 8.5632 14.1627 9.00518 14.1627 10.7738C14.1627 12.5417 11.781 12.9998 8.95831 12.9998ZM13.874 3.50134C13.874 4.47457 13.5817 5.3812 13.0689 6.1349C13.0161 6.21246 13.063 6.3171 13.156 6.3332C13.2843 6.35515 13.4169 6.36759 13.5517 6.37125C14.896 6.40638 16.1026 5.54218 16.4359 4.24114C16.9297 2.3086 15.4799 0.573628 13.6337 0.573628C13.433 0.573628 13.241 0.594849 13.0542 0.632899C13.0286 0.638753 13.0015 0.650461 12.9868 0.673145C12.9692 0.700952 12.9824 0.738271 13 0.762418C13.5546 1.5388 13.874 2.48568 13.874 3.50134ZM16.1003 7.72875C17.0036 7.9051 17.5977 8.26512 17.8439 8.78832C18.0519 9.21785 18.0519 9.71617 17.8439 10.145C17.4673 10.9565 16.2534 11.217 15.7816 11.2843C15.6842 11.2989 15.6058 11.2148 15.616 11.1175C15.8571 8.86881 13.9398 7.80265 13.4439 7.55752C13.4226 7.54654 13.4182 7.52971 13.4204 7.51947C13.4219 7.51215 13.4307 7.50044 13.4468 7.49825C14.5201 7.47849 15.6739 7.62484 16.1003 7.72875ZM4.44785 6.37077C4.58265 6.36711 4.71452 6.3554 4.84346 6.33272C4.9365 6.31662 4.98339 6.21198 4.93064 6.13441C4.41782 5.38072 4.12551 4.47408 4.12551 3.50086C4.12551 2.4852 4.44492 1.53832 4.9995 0.761933C5.01709 0.737786 5.02954 0.700467 5.01269 0.67266C4.99804 0.650708 4.9702 0.638268 4.94529 0.632414C4.75775 0.594364 4.5658 0.573143 4.36507 0.573143C2.51891 0.573143 1.06909 2.30811 1.5636 4.24065C1.89693 5.5417 3.10353 6.40589 4.44785 6.37077ZM4.57931 7.51922C4.58151 7.5302 4.57712 7.5463 4.5566 7.558C4.0599 7.80314 2.14268 8.86929 2.3837 11.1172C2.39396 11.2153 2.31631 11.2987 2.21887 11.2848C1.74707 11.2175 0.533151 10.957 0.156594 10.1455C-0.0521979 9.71592 -0.0521979 9.21834 0.156594 8.7888C0.402748 8.2656 0.996156 7.90558 1.89945 7.7285C2.32656 7.62532 3.47968 7.47898 4.55367 7.49873C4.56979 7.50093 4.57785 7.51264 4.57931 7.51922Z" fill="white"/>
</svg>
