<svg width="22" height="18" viewBox="0 0 22 18" fill="none" xmlns="http://www.w3.org/2000/svg">
<path fill-rule="evenodd" clip-rule="evenodd" d="M21.1092 7.03547C20.9664 7.17441 20.7727 7.25381 20.5688 7.25381C19.8144 7.25381 19.2027 7.84929 19.2027 8.57378C19.2027 9.30324 19.8072 9.89574 20.5546 9.90368C20.9756 9.90765 21.3335 10.1935 21.3335 10.6034V13.149C21.3335 15.2918 19.5493 17.0296 17.3472 17.0296H14.0236C13.68 17.0296 13.4017 16.7586 13.4017 16.4242V14.2804C13.4017 13.8636 13.0652 13.5361 12.637 13.5361C12.219 13.5361 11.8724 13.8636 11.8724 14.2804V16.4242C11.8724 16.7586 11.5941 17.0296 11.2515 17.0296H4.23628C2.04434 17.0296 0.25 15.2928 0.25 13.149V10.6034C0.25 10.1935 0.607848 9.90765 1.02891 9.90368C1.77723 9.89574 2.38077 9.30324 2.38077 8.57378C2.38077 7.86913 1.78946 7.3332 1.01463 7.3332C0.81073 7.3332 0.617023 7.25381 0.474292 7.11486C0.331561 6.97592 0.25 6.78735 0.25 6.58886V4.01838C0.25 1.87863 2.04841 0.12793 4.24648 0.12793H11.2515C11.5941 0.12793 11.8724 0.398872 11.8724 0.733332V3.27403C11.8724 3.68094 12.219 4.01838 12.637 4.01838C13.0652 4.01838 13.4017 3.68094 13.4017 3.27403V0.733332C13.4017 0.398872 13.68 0.12793 14.0236 0.12793H17.3472C19.5493 0.12793 21.3335 1.86474 21.3335 4.00846V6.50946C21.3335 6.70795 21.2519 6.89652 21.1092 7.03547ZM12.6373 11.611C13.0655 11.611 13.4019 11.2735 13.4019 10.8666V6.89678C13.4019 6.48987 13.0655 6.15244 12.6373 6.15244C12.2193 6.15244 11.8727 6.48987 11.8727 6.89678V10.8666C11.8727 11.2735 12.2193 11.611 12.6373 11.611Z" fill="#06152B"/>
</svg>
